<mxfile host="app.diagrams.net" modified="2021-03-14T12:20:35.378Z" agent="5.0 (Macintosh; Intel Mac OS X 10_15_6) AppleWebKit/605.1.15 (KHTML, like Gecko) Version/14.0.3 Safari/605.1.15" etag="446Bz_y6A3Hs5q4Svcbf" version="14.4.8" type="github">
  <diagram id="C5RBs43oDa-KdzZeNtuy" name="Page-1">
    <mxGraphModel dx="946" dy="1814" grid="1" gridSize="10" guides="1" tooltips="1" connect="1" arrows="1" fold="1" page="1" pageScale="1" pageWidth="827" pageHeight="1169" math="0" shadow="0">
      <root>
        <mxCell id="WIyWlLk6GJQsqaUBKTNV-0" />
        <mxCell id="WIyWlLk6GJQsqaUBKTNV-1" parent="WIyWlLk6GJQsqaUBKTNV-0" />
        <mxCell id="XkpS2Liz6UOSkGY_cmQt-5" style="edgeStyle=orthogonalEdgeStyle;rounded=0;orthogonalLoop=1;jettySize=auto;html=1;exitX=0.5;exitY=1;exitDx=0;exitDy=0;entryX=0.5;entryY=0;entryDx=0;entryDy=0;" edge="1" parent="WIyWlLk6GJQsqaUBKTNV-1" source="XkpS2Liz6UOSkGY_cmQt-1" target="XkpS2Liz6UOSkGY_cmQt-17">
          <mxGeometry relative="1" as="geometry">
            <mxPoint x="300" y="110" as="sourcePoint" />
            <mxPoint x="350" y="90" as="targetPoint" />
          </mxGeometry>
        </mxCell>
        <mxCell id="XkpS2Liz6UOSkGY_cmQt-1" value="Run" style="rounded=1;whiteSpace=wrap;html=1;" vertex="1" parent="WIyWlLk6GJQsqaUBKTNV-1">
          <mxGeometry x="260" y="-50" width="180" height="90" as="geometry" />
        </mxCell>
        <mxCell id="XkpS2Liz6UOSkGY_cmQt-11" value="YES&lt;br&gt;" style="text;html=1;strokeColor=none;fillColor=none;align=center;verticalAlign=middle;whiteSpace=wrap;rounded=0;" vertex="1" parent="WIyWlLk6GJQsqaUBKTNV-1">
          <mxGeometry x="390" y="340" width="140" height="20" as="geometry" />
        </mxCell>
        <mxCell id="XkpS2Liz6UOSkGY_cmQt-15" value="NO&lt;br&gt;" style="text;html=1;strokeColor=none;fillColor=none;align=center;verticalAlign=middle;whiteSpace=wrap;rounded=0;" vertex="1" parent="WIyWlLk6GJQsqaUBKTNV-1">
          <mxGeometry x="200" y="390" width="90" height="20" as="geometry" />
        </mxCell>
        <mxCell id="XkpS2Liz6UOSkGY_cmQt-16" value="FIND FACE" style="rounded=0;whiteSpace=wrap;html=1;" vertex="1" parent="WIyWlLk6GJQsqaUBKTNV-1">
          <mxGeometry x="290" y="200" width="120" height="60" as="geometry" />
        </mxCell>
        <mxCell id="XkpS2Liz6UOSkGY_cmQt-19" style="edgeStyle=orthogonalEdgeStyle;rounded=0;orthogonalLoop=1;jettySize=auto;html=1;exitX=0.5;exitY=1;exitDx=0;exitDy=0;entryX=0.5;entryY=0;entryDx=0;entryDy=0;" edge="1" parent="WIyWlLk6GJQsqaUBKTNV-1" source="XkpS2Liz6UOSkGY_cmQt-17" target="XkpS2Liz6UOSkGY_cmQt-16">
          <mxGeometry relative="1" as="geometry" />
        </mxCell>
        <mxCell id="XkpS2Liz6UOSkGY_cmQt-17" value="WEBCAM" style="shape=parallelogram;perimeter=parallelogramPerimeter;whiteSpace=wrap;html=1;fixedSize=1;" vertex="1" parent="WIyWlLk6GJQsqaUBKTNV-1">
          <mxGeometry x="290" y="100" width="120" height="60" as="geometry" />
        </mxCell>
        <mxCell id="XkpS2Liz6UOSkGY_cmQt-20" value="Face found" style="rhombus;whiteSpace=wrap;html=1;" vertex="1" parent="WIyWlLk6GJQsqaUBKTNV-1">
          <mxGeometry x="275" y="320" width="150" height="90" as="geometry" />
        </mxCell>
        <mxCell id="XkpS2Liz6UOSkGY_cmQt-22" value="" style="endArrow=classic;html=1;exitX=0.5;exitY=1;exitDx=0;exitDy=0;entryX=0.5;entryY=0;entryDx=0;entryDy=0;" edge="1" parent="WIyWlLk6GJQsqaUBKTNV-1" source="XkpS2Liz6UOSkGY_cmQt-16" target="XkpS2Liz6UOSkGY_cmQt-20">
          <mxGeometry width="50" height="50" relative="1" as="geometry">
            <mxPoint x="390" y="330" as="sourcePoint" />
            <mxPoint x="440" y="280" as="targetPoint" />
          </mxGeometry>
        </mxCell>
        <mxCell id="XkpS2Liz6UOSkGY_cmQt-23" value="" style="endArrow=classic;html=1;exitX=1;exitY=0.5;exitDx=0;exitDy=0;entryX=0;entryY=0.5;entryDx=0;entryDy=0;" edge="1" parent="WIyWlLk6GJQsqaUBKTNV-1" source="XkpS2Liz6UOSkGY_cmQt-20" target="XkpS2Liz6UOSkGY_cmQt-33">
          <mxGeometry width="50" height="50" relative="1" as="geometry">
            <mxPoint x="390" y="330" as="sourcePoint" />
            <mxPoint x="520" y="365" as="targetPoint" />
            <Array as="points">
              <mxPoint x="490" y="365" />
            </Array>
          </mxGeometry>
        </mxCell>
        <mxCell id="XkpS2Liz6UOSkGY_cmQt-24" style="edgeStyle=orthogonalEdgeStyle;rounded=0;orthogonalLoop=1;jettySize=auto;html=1;exitX=0.5;exitY=1;exitDx=0;exitDy=0;" edge="1" parent="WIyWlLk6GJQsqaUBKTNV-1" source="XkpS2Liz6UOSkGY_cmQt-15" target="XkpS2Liz6UOSkGY_cmQt-15">
          <mxGeometry relative="1" as="geometry" />
        </mxCell>
        <mxCell id="XkpS2Liz6UOSkGY_cmQt-25" value="" style="endArrow=classic;html=1;exitX=0.5;exitY=1;exitDx=0;exitDy=0;entryX=0;entryY=0.5;entryDx=0;entryDy=0;" edge="1" parent="WIyWlLk6GJQsqaUBKTNV-1" source="XkpS2Liz6UOSkGY_cmQt-20" target="XkpS2Liz6UOSkGY_cmQt-16">
          <mxGeometry width="50" height="50" relative="1" as="geometry">
            <mxPoint x="390" y="330" as="sourcePoint" />
            <mxPoint x="280" y="230" as="targetPoint" />
            <Array as="points">
              <mxPoint x="180" y="410" />
              <mxPoint x="180" y="230" />
            </Array>
          </mxGeometry>
        </mxCell>
        <mxCell id="XkpS2Liz6UOSkGY_cmQt-29" style="edgeStyle=orthogonalEdgeStyle;rounded=0;orthogonalLoop=1;jettySize=auto;html=1;exitX=0.5;exitY=1;exitDx=0;exitDy=0;entryX=0.5;entryY=0;entryDx=0;entryDy=0;" edge="1" parent="WIyWlLk6GJQsqaUBKTNV-1" source="XkpS2Liz6UOSkGY_cmQt-27" target="XkpS2Liz6UOSkGY_cmQt-28">
          <mxGeometry relative="1" as="geometry" />
        </mxCell>
        <mxCell id="XkpS2Liz6UOSkGY_cmQt-27" value="Find forehead" style="rounded=0;whiteSpace=wrap;html=1;" vertex="1" parent="WIyWlLk6GJQsqaUBKTNV-1">
          <mxGeometry x="517.5" y="470" width="120" height="60" as="geometry" />
        </mxCell>
        <mxCell id="XkpS2Liz6UOSkGY_cmQt-28" value="Forehead found" style="rhombus;whiteSpace=wrap;html=1;" vertex="1" parent="WIyWlLk6GJQsqaUBKTNV-1">
          <mxGeometry x="522.5" y="585" width="110" height="80" as="geometry" />
        </mxCell>
        <mxCell id="XkpS2Liz6UOSkGY_cmQt-31" value="" style="endArrow=classic;html=1;exitX=1;exitY=0.5;exitDx=0;exitDy=0;entryX=1;entryY=0.5;entryDx=0;entryDy=0;" edge="1" parent="WIyWlLk6GJQsqaUBKTNV-1" source="XkpS2Liz6UOSkGY_cmQt-28" target="XkpS2Liz6UOSkGY_cmQt-33">
          <mxGeometry width="50" height="50" relative="1" as="geometry">
            <mxPoint x="470" y="560" as="sourcePoint" />
            <mxPoint x="660" y="500" as="targetPoint" />
            <Array as="points">
              <mxPoint x="710" y="625" />
              <mxPoint x="710" y="490" />
              <mxPoint x="710" y="365" />
            </Array>
          </mxGeometry>
        </mxCell>
        <mxCell id="XkpS2Liz6UOSkGY_cmQt-32" value="NO" style="text;html=1;strokeColor=none;fillColor=none;align=center;verticalAlign=middle;whiteSpace=wrap;rounded=0;" vertex="1" parent="WIyWlLk6GJQsqaUBKTNV-1">
          <mxGeometry x="730" y="540" width="40" height="20" as="geometry" />
        </mxCell>
        <mxCell id="XkpS2Liz6UOSkGY_cmQt-35" style="edgeStyle=orthogonalEdgeStyle;rounded=0;orthogonalLoop=1;jettySize=auto;html=1;exitX=0.5;exitY=1;exitDx=0;exitDy=0;entryX=0.5;entryY=0;entryDx=0;entryDy=0;" edge="1" parent="WIyWlLk6GJQsqaUBKTNV-1" source="XkpS2Liz6UOSkGY_cmQt-33" target="XkpS2Liz6UOSkGY_cmQt-27">
          <mxGeometry relative="1" as="geometry" />
        </mxCell>
        <mxCell id="XkpS2Liz6UOSkGY_cmQt-33" value="Remind to keep your head still" style="shape=parallelogram;perimeter=parallelogramPerimeter;whiteSpace=wrap;html=1;fixedSize=1;" vertex="1" parent="WIyWlLk6GJQsqaUBKTNV-1">
          <mxGeometry x="480" y="330" width="195" height="70" as="geometry" />
        </mxCell>
        <mxCell id="XkpS2Liz6UOSkGY_cmQt-36" value="" style="endArrow=classic;html=1;exitX=0;exitY=0.5;exitDx=0;exitDy=0;entryX=1;entryY=0.5;entryDx=0;entryDy=0;" edge="1" parent="WIyWlLk6GJQsqaUBKTNV-1" source="XkpS2Liz6UOSkGY_cmQt-28" target="XkpS2Liz6UOSkGY_cmQt-39">
          <mxGeometry width="50" height="50" relative="1" as="geometry">
            <mxPoint x="390" y="640" as="sourcePoint" />
            <mxPoint x="440" y="625" as="targetPoint" />
          </mxGeometry>
        </mxCell>
        <mxCell id="XkpS2Liz6UOSkGY_cmQt-37" value="YES" style="text;html=1;strokeColor=none;fillColor=none;align=center;verticalAlign=middle;whiteSpace=wrap;rounded=0;" vertex="1" parent="WIyWlLk6GJQsqaUBKTNV-1">
          <mxGeometry x="460" y="600" width="40" height="20" as="geometry" />
        </mxCell>
        <mxCell id="XkpS2Liz6UOSkGY_cmQt-39" value="Work with green channel" style="rounded=0;whiteSpace=wrap;html=1;" vertex="1" parent="WIyWlLk6GJQsqaUBKTNV-1">
          <mxGeometry x="305" y="595" width="120" height="60" as="geometry" />
        </mxCell>
        <mxCell id="XkpS2Liz6UOSkGY_cmQt-41" value="" style="endArrow=classic;html=1;exitX=0.5;exitY=1;exitDx=0;exitDy=0;entryX=0.5;entryY=0;entryDx=0;entryDy=0;" edge="1" parent="WIyWlLk6GJQsqaUBKTNV-1" source="XkpS2Liz6UOSkGY_cmQt-39" target="XkpS2Liz6UOSkGY_cmQt-42">
          <mxGeometry width="50" height="50" relative="1" as="geometry">
            <mxPoint x="390" y="590" as="sourcePoint" />
            <mxPoint x="365" y="730" as="targetPoint" />
          </mxGeometry>
        </mxCell>
        <mxCell id="XkpS2Liz6UOSkGY_cmQt-44" style="edgeStyle=orthogonalEdgeStyle;rounded=0;orthogonalLoop=1;jettySize=auto;html=1;entryX=0.5;entryY=0;entryDx=0;entryDy=0;" edge="1" parent="WIyWlLk6GJQsqaUBKTNV-1" source="XkpS2Liz6UOSkGY_cmQt-42" target="XkpS2Liz6UOSkGY_cmQt-43">
          <mxGeometry relative="1" as="geometry" />
        </mxCell>
        <mxCell id="XkpS2Liz6UOSkGY_cmQt-42" value="Analyze graphic transformation by time" style="rounded=0;whiteSpace=wrap;html=1;" vertex="1" parent="WIyWlLk6GJQsqaUBKTNV-1">
          <mxGeometry x="305" y="710" width="120" height="60" as="geometry" />
        </mxCell>
        <mxCell id="XkpS2Liz6UOSkGY_cmQt-43" value="Show bpm&amp;nbsp;" style="rounded=0;whiteSpace=wrap;html=1;" vertex="1" parent="WIyWlLk6GJQsqaUBKTNV-1">
          <mxGeometry x="305" y="800" width="120" height="60" as="geometry" />
        </mxCell>
      </root>
    </mxGraphModel>
  </diagram>
</mxfile>
